<svg xmlns="http://www.w3.org/2000/svg" width="32" height="32" viewBox="0 0 32 32">
    <g fill="none" fill-rule="evenodd">
        <g fill="#2B3B48" fill-rule="nonzero">
            <g>
                <g>
                    <g>
                        <path d="M17.105 9.26c.311-.332.832-.348 1.164-.037l6.588 6.176.022.022c.015.014.029.03.043.046l.03.036.042.063.013.021c.014.024.026.049.038.074l.01.025c.04.097.063.203.063.314 0 .111-.022.217-.062.314l-.011.025c-.012.025-.024.05-.038.074l-.013.02c-.014.023-.028.044-.044.064-.027.036-.058.071-.093.104l.065-.068-.043.047-.022.02-6.588 6.177c-.332.311-.853.295-1.164-.037-.311-.332-.294-.853.038-1.164l5.069-4.753H7.824c-.42 0-.767-.314-.818-.72L7 16c0-.455.369-.824.824-.824H22.21l-5.068-4.752c-.305-.285-.344-.747-.109-1.077z" transform="translate(-236 -966) translate(15 586) translate(102 380) translate(119)"/>
                    </g>
                </g>
            </g>
        </g>
    </g>
</svg>
